<?xml version="1.0" encoding="UTF-8" standalone="no"?>
<!-- Created with Inkscape (http://www.inkscape.org/) -->

<svg
   xmlns:dc="http://purl.org/dc/elements/1.1/"
   xmlns:cc="http://creativecommons.org/ns#"
   xmlns:rdf="http://www.w3.org/1999/02/22-rdf-syntax-ns#"
   xmlns:svg="http://www.w3.org/2000/svg"
   xmlns="http://www.w3.org/2000/svg"
   xmlns:sodipodi="http://sodipodi.sourceforge.net/DTD/sodipodi-0.dtd"
   xmlns:inkscape="http://www.inkscape.org/namespaces/inkscape"
   width="200"
   height="200"
   id="svg2"
   version="1.1"
   inkscape:version="0.48.3.1 r9886"
   inkscape:export-filename="/home/robert/dev/grhungary/client/static/images/bird.png"
   inkscape:export-xdpi="90"
   inkscape:export-ydpi="90"
   sodipodi:docname="New document 1">
  <defs
     id="defs4" />
  <sodipodi:namedview
     id="base"
     pagecolor="#ffffff"
     bordercolor="#666666"
     borderopacity="1.0"
     inkscape:pageopacity="0.0"
     inkscape:pageshadow="2"
     inkscape:zoom="1.979899"
     inkscape:cx="146.25429"
     inkscape:cy="74.028527"
     inkscape:document-units="px"
     inkscape:current-layer="layer1"
     showgrid="false"
     inkscape:window-width="1280"
     inkscape:window-height="1000"
     inkscape:window-x="0"
     inkscape:window-y="24"
     inkscape:window-maximized="1" />
  <metadata
     id="metadata7">
    <rdf:RDF>
      <cc:Work
         rdf:about="">
        <dc:format>image/svg+xml</dc:format>
        <dc:type
           rdf:resource="http://purl.org/dc/dcmitype/StillImage" />
        <dc:title></dc:title>
      </cc:Work>
    </rdf:RDF>
  </metadata>
  <g
     inkscape:label="Layer 1"
     inkscape:groupmode="layer"
     id="layer1"
     transform="translate(0,-852.36218)">
    <path
       style="fill:#93242b;fill-opacity:1"
       d="m 85.843632,1037.1044 c 0.44762,-0.3328 0.45518,-0.41 0.10303,-1.0526 -0.209,-0.3813 -0.85289,-1.011 -1.43086,-1.3991 -2.10383,-1.413 -1.57246,-2.3462 6.01392,-10.5626 9.15099,-9.9109 11.884378,-13.4154 14.098818,-18.0763 1.13259,-2.3838 1.29856,-2.597 3.12153,-4.0107 3.42278,-2.65436 4.24796,-4.33667 3.07649,-6.27205 -0.4516,-0.74621 -0.59457,-1.41713 -0.68078,-3.19464 -0.10412,-2.14701 -0.0789,-2.28606 0.5494,-3.03276 0.43,-0.51105 2.31781,-1.63827 5.43984,-3.248 11.11718,-5.73241 20.76139,-12.02226 26.3649,-17.195 1.19548,-1.10357 2.60425,-2.22618 3.1306,-2.49471 1.69106,-0.86271 10.73831,-9.29636 17.12065,-15.95948 9.22172,-9.62743 18.66853,-20.88675 22.54078,-26.86555 1.80039,-2.77982 8.59359,-14.48973 10.28732,-17.73294 3.59063,-6.8755 5.27044,-14.00905 3.99871,-16.98112 -1.04014,-2.43087 -2.60685,-3.29512 -6.57145,-3.62503 -6.44601,-0.53642 -9.55028,-1.1612 -12.54973,-2.52584 -1.45636,-0.66259 -1.76981,-0.92882 -2.39458,-2.03384 -1.58522,-2.80376 -6.56776,-8.93831 -7.50014,-9.23424 -0.29716,-0.0943 -1.34776,0.19861 -2.67159,0.74487 -1.20002,0.49517 -3.17425,1.23236 -4.38719,1.6382 -1.21294,0.40585 -2.96818,1.18341 -3.90053,1.72795 -0.93236,0.54452 -1.93207,0.99004 -2.2216,0.99004 -0.99877,0 -2.38231,-0.95309 -5.23465,-3.60604 -4.02533,-3.74395 -5.48934,-4.94585 -6.79348,-5.57718 -1.04067,-0.50378 -1.26633,-0.52614 -2.69445,-0.26717 -2.09078,0.37912 -3.06614,0.92687 -4.71858,2.64987 -2.71444,2.83035 -4.60364,5.70592 -8.55501,13.02168 -3.90435,7.22869 -8.29496,14.63502 -10.91652,18.41462 -4.54652,6.55486 -10.2826,12.16838 -12.16071,11.90088 -1.0382,-0.14788 -1.27513,-1.18169 -1.21368,-5.29562 0.0308,-2.05895 0.13193,-5.1214 0.22484,-6.80548 0.0929,-1.68408 0.10782,-4.06164 0.0331,-5.28349 -0.12342,-2.01935 -0.20127,-2.28989 -0.85532,-2.97257 -0.39573,-0.41307 -0.96172,-0.75102 -1.25775,-0.75102 -0.90053,0 -2.20472,1.16578 -9.322518,8.33323 -7.17522,7.22528 -10.67406,10.2101 -17.55937,14.97972 -6.08891,4.21794 -14.60883,9.08768 -18.88008,10.79129 -2.7194,1.08465 -4.24479,0.98697 -6.24823,-0.4001 -2.46478,-1.70647 -3.13171,-2.04406 -6.11912,-3.09747 -1.60513,-0.56599 -3.19716,-1.2874 -3.53784,-1.60313 -0.4147,-0.38432 -0.88235,-1.42715 -1.41497,-3.15523 -1.33128,-4.31926 -3.70963,-8.39984 -6.37341,-10.93497 -1.97506,-1.87965 -3.13381,-2.50767 -7.05995,-3.82631 -2.78789,-0.93633 -3.67151,-1.12732 -5.22782,-1.12998 -2.80097,-0.005 -5.87721,0.44814 -7.83213,1.15318 -2.8791,1.03834 -3.1992,1.02466 -6.1561802,-0.26289 -1.44292,-0.6283 -2.90388,-1.14235 -3.24658,-1.14235 -0.3427,0 -1.36503,-0.22916 -2.27186,-0.50925 -0.90683,-0.28009 -1.75807001,-0.44171 -1.89166001,-0.35915 -0.38698,0.23918 0.36062,1.44272 2.60152001,4.18805 3.17822,3.89364 3.73293,5.3356 2.62778,6.83092 -0.73688,0.997 -0.98098,4.36165 -0.98774,13.61425 -0.009,12.14951 0.23245,14.26702 2.48144,21.77406 0.38953,1.30021 0.99987,3.47738 1.35633,4.83812 1.67871,6.40842 4.8630202,10.80137 13.3256002,18.38357 3.93187,3.52281 4.9639,4.2608 8.33635,5.96113 1.23179,0.62104 3.50212,1.85645 5.04516,2.74535 1.54305,0.88889 4.00663,2.09293 5.47462,2.67565 1.46799,0.5827 4.57275,1.87063 6.89947,2.86205 3.49761,1.49036 5.28613,2.06918 10.32536,3.34155 3.35223,0.84651 6.65568,1.80484 7.34096,2.12969 1.30532,0.61887 2.28055,1.40542 7.51353,6.06012 1.75375,1.55998 3.71913,3.16441 4.36754,3.56554 1.56896,0.97042 2.27871,1.98312 2.10952,3.01002 -0.31596,1.9177 -5.72991,13.3662 -8.37612,17.7124 -0.66665,1.0949 -1.56722,2.5819 -2.00128,3.3044 -1.05344,1.7536 -1.72653,2.189 -2.79842,1.8102 -2.10771,-0.7447 -6.41205,-1.2763 -6.41205,-0.7919 0,0.1191 0.94962,0.6398 2.11025,1.1569 3.45164,1.538 3.60114,2.1319 0.7943,3.1553 -1.3405,0.4888 -1.44696,0.5741 -0.9054,0.725 1.35466,0.3776 2.8938,0.226 4.0737,-0.4014 0.64351,-0.3422 1.29883,-0.6221 1.45625,-0.6221 0.15743,0 1.14322,0.8958 2.19066,1.9908 1.04744,1.0948 2.03253,1.9907 2.18908,1.9907 0.53214,0 0.28707,-1.2034 -0.58634,-2.879 -1.21127,-2.3238 -1.16552,-3.0754 0.32647,-5.3632 0.65856,-1.0099 2.07372,-3.3478 3.14475,-5.1955 6.24075,-10.7661 7.5826,-12.6851 10.70136,-15.3042 l 1.18546,-0.9954 0.71002,-3.48381 c 0.75798,-3.71901 1.29967,-5.23834 2.00156,-5.61404 0.2402,-0.12854 1.08797,-0.23105 1.88394,-0.22775 1.93463,0.01 3.83617,0.81798 5.87856,2.5045 0.89697,0.74069 2.55255,1.85059 3.679038,2.46645 1.1265,0.61586 2.27695,1.42915 2.55655,1.80725 0.46412,0.6273 0.4812,0.7898 0.19615,1.8663 -0.58473,2.2081 -2.59088,5.2332 -8.299048,12.5142 -7.47946,9.5403 -11.42505,14.0222 -13.00353,14.7712 -1.17979,0.5599 -2.59859,0.4935 -5.54884,-0.2597 -1.41195,-0.3603 -2.63858,-0.5839 -2.72582,-0.4967 -0.18935,0.1894 0.84204,1.3368 1.53907,1.7122 0.27114,0.146 1.05501,0.3899 1.74193,0.5419 1.59178,0.3524 1.75024,0.9635 0.61987,2.3906 -1.3125,1.6572 -0.6896,2.0813 1.99772,1.36 1.45646,-0.391 2.68954,-0.4715 3.34827,-0.2188 0.50187,0.1926 1.20992,1.5204 1.04288,1.9556 -0.079,0.2059 0.15189,0.3787 0.63522,0.4753 1.02153,0.2043 1.03076,0.2031 1.5827,-0.2074 z m -20.91042,-68.38453 c -0.0961,-4.55077 -0.0672,-11.20725 0.0645,-14.79218 0.20953,-5.71026 0.2985,-6.62003 0.71793,-7.34097 0.63297,-1.08798 1.55252,-1.17255 3.46635,-0.31879 1.52526,0.68043 10.0799,3.196 14.40745,4.23666 4.40883,1.0602 13.25046,2.34022 22.520588,3.26034 3.34849,0.33237 6.68371,0.4316 14.43309,0.42945 10.74102,-0.003 15.85949,-0.362 23.01827,-1.61446 4.15753,-0.72738 6.09941,-0.83972 6.70946,-0.38815 0.40901,0.30277 0.4359,0.42459 0.16558,0.7503 -0.67497,0.81329 -13.26934,8.59538 -18.69524,11.55182 -9.10758,4.96251 -24.28873,9.56001 -36.704828,11.11581 -7.14423,0.89521 -12.79678,1.18262 -26.4111,1.3429 l -3.51726,0.0415 -0.17472,-8.27414 z m -42.01154,-2.942 c -0.63487,-0.42052 -2.21164,-1.87658 -3.50392,-3.23567 -5.31191,-5.5866 -10.4858302,-15.2476 -9.34568,-17.45076 0.66145,-1.27814 2.47697,-2.47889 9.31495,-6.1607 9.68371,-5.21405 13.14107,-7.55552 17.15415,-11.61751 1.47316,-1.49112 2.78988,-2.6078 3.19478,-2.70942 0.96959,-0.24335 2.42123,0.17723 5.66823,1.64223 4.03701,1.82146 6.70614,3.57839 6.70614,4.41426 0,0.19945 -0.77371,1.43972 -1.71935,2.75615 -0.94565,1.31643 -3.19772,4.68912 -5.00462,7.49485 -8.31042,12.90441 -10.55587,16.01144 -14.54136,20.12094 -2.22237,2.29152 -6.06486,5.51023 -6.57811,5.51023 -0.10498,0 -0.71032,-0.34407 -1.34521,-0.7646 z M 119.6837,949.86391 c -4.13151,-0.29787 -4.91783,-0.60155 -5.98393,-2.31099 -1.23167,-1.97493 -5.66567,-7.85444 -7.75238,-10.27969 -1.07394,-1.24817 -3.36496,-3.76774 -5.09115,-5.59903 -4.310378,-4.57284 -4.810038,-5.72543 -3.301378,-7.61531 0.68187,-0.85416 4.798018,-3.8823 6.725288,-4.94758 l 0.78307,-0.43286 2.45193,2.20588 c 1.34856,1.21322 3.44149,3.10814 4.65096,4.21094 3.4417,3.13812 16.17929,16.77055 20.35817,21.78834 1.27541,1.53146 1.82208,2.45464 1.59059,2.68614 -0.52895,0.52895 -8.8282,0.69811 -14.43117,0.29416 z M 86.326672,947.755 c -5.65286,-1.09444 -14.90807,-4.70666 -18.75796,-7.32107 -1.04975,-0.71288 -4.14669,-3.16606 -5.20155,-4.1203 -0.20483,-0.1853 3.63797,-2.22907 5.79374,-3.08137 3.10396,-1.22718 9.26493,-3.02166 10.36994,-3.02042 1.70983,0.002 2.24085,0.55454 6.60277,6.8714 1.73797,2.5169 4.84416,6.51299 8.08508,10.40141 l 0.81206,0.97429 -2.85665,-0.15926 c -1.57116,-0.0876 -3.7525,-0.33269 -4.84743,-0.54468 z m 68.052558,-6.28483 c -7.05956,-6.83452 -7.61053,-7.31735 -13.43079,-11.76997 -2.39514,-1.83232 -6.53843,-5.07246 -9.20731,-7.2003 -2.66888,-2.12783 -5.69236,-4.41655 -6.71885,-5.08604 -1.0265,-0.6695 -2.77402,-1.81176 -3.8834,-2.53836 -2.16968,-1.42105 -4.43418,-3.34206 -4.8454,-4.11044 -0.29599,-0.55306 -0.13697,-0.80482 2.88511,-4.56782 1.09918,-1.36865 2.85795,-3.73004 3.90836,-5.24752 1.77548,-2.56493 3.60847,-4.5819 4.16395,-4.5819 0.43209,0 6.3143,2.25607 9.21831,3.53561 6.23179,2.7458 11.94351,5.80198 20.15654,10.78524 6.80714,4.13021 19.91079,12.41922 20.84088,13.18335 0.97244,0.79893 1.03934,1.59117 0.24476,2.89869 -3.59546,5.91651 -5.35197,8.17841 -11.52795,14.84489 -2.45099,2.64564 -4.6243,5.02105 -4.8296,5.27869 -0.2053,0.25765 -0.48525,0.47215 -0.62212,0.47668 -0.13686,0.004 -2.99548,-2.65083 -6.35249,-5.9008 z M 19.589862,911.77971 c -1.04726,-0.3968 -1.82033,-1.23251 -1.82033,-1.96781 0,-0.96155 0.44289,-1.25062 1.91611,-1.25062 1.55545,0 2.31427,0.57115 2.31427,1.74192 0,0.78485 -0.74309,1.74193 -1.35245,1.74193 -0.1964,0 -0.67231,-0.11944 -1.0576,-0.26542 z"
       id="path3098"
       inkscape:connector-curvature="0" />
  </g>
</svg>
